<svg width="13" height="12" viewBox="0 0 13 12" fill="none" xmlns="http://www.w3.org/2000/svg">
<g id="Group">
<g id="Group_2">
<path id="Vector" d="M5.81411 0.0383369C3.10764 0.340259 0.909504 2.4891 0.553558 5.18896C0.0492302 9.0149 3.1771 12.2698 6.9658 11.9823C8.35949 11.8765 9.66402 11.2537 10.6862 10.3004L10.774 10.2186C10.875 10.1244 10.8805 9.96623 10.7863 9.86526L10.4452 9.49947C10.351 9.39848 10.1928 9.39297 10.0918 9.48714L9.90894 9.6577C8.77199 10.7178 7.21119 11.1948 5.63666 10.9266C3.40506 10.5466 1.68953 8.65197 1.51527 6.39494C1.28486 3.41034 3.69236 0.916235 6.64822 1.00213C9.37372 1.08138 11.5 3.4072 11.5 6.13384V6.49999C11.5 7.08438 10.9964 7.55308 10.4003 7.49514C9.88077 7.44461 9.5 6.97766 9.5 6.45566V4.25001C9.5 4.11192 9.38807 4 9.25 4H8.75C8.64962 4 8.56435 4.06 8.52458 4.14538C8.0215 3.59664 7.30138 3.25 6.5 3.25C4.98364 3.25 3.75001 4.48363 3.75001 5.99999C3.75001 7.51635 4.98364 8.75001 6.5 8.75001C7.4552 8.75001 8.29745 8.25995 8.7906 7.5186C9.16189 8.13911 9.85175 8.54802 10.637 8.49541C11.6988 8.42427 12.5 7.49355 12.5 6.42939V5.99999C12.5 2.46566 9.42807 -0.364835 5.81411 0.0383369ZM6.5 7.75C5.53515 7.75 4.75 6.96484 4.75 5.99999C4.75 5.03514 5.53515 4.24999 6.5 4.24999C7.46486 4.24999 8.25001 5.03514 8.25001 5.99999C8.25001 6.96484 7.46486 7.75 6.5 7.75Z" fill="#333333"/>
</g>
</g>
</svg>
