<svg width="157" height="35" viewBox="0 0 157 35" fill="none" xmlns="http://www.w3.org/2000/svg">
<path d="M29.3981 22.7102C28.5845 20.4159 27.771 18.1216 26.9575 15.8273C26.144 13.5075 25.3304 11.2004 24.5169 8.9061C23.7288 11.2004 22.928 13.4947 22.1144 15.789C21.3009 18.0833 20.5001 20.3904 19.712 22.7102H29.3981ZM40.152 33.4935C40.152 33.6464 40.1265 33.7866 40.0757 33.9141C40.0503 34.0161 39.9613 34.067 39.8087 34.067C39.6308 34.067 39.1859 34.0543 38.474 34.0288C37.7876 34.0033 37.1902 33.9906 36.6817 33.9906C35.8936 33.9906 35.1055 33.9906 34.3174 33.9906C33.5547 33.9906 32.7793 34.0161 31.9912 34.067C31.5844 34.0925 31.165 34.1053 30.7328 34.1053C30.326 34.1308 29.9192 34.1435 29.5125 34.1435C29.3854 34.1435 29.2964 34.1053 29.2455 34.0288C29.2201 33.9268 29.2074 33.8249 29.2074 33.7229L29.2455 33.417C29.2455 33.3405 29.271 33.264 29.3218 33.1876C29.3727 33.0856 29.4489 33.0346 29.5506 33.0346H31.4192C31.648 33.0346 31.9022 32.9836 32.1819 32.8817C32.487 32.7797 32.6395 32.5885 32.6395 32.3081C32.6395 32.2316 32.5505 31.9384 32.3726 31.4286C32.1946 30.8932 31.9785 30.2559 31.7243 29.5167C31.47 28.7519 31.2031 27.9871 30.9235 27.2224C30.6438 26.4576 30.4023 25.782 30.1989 25.1957C29.9955 24.5839 29.8557 24.1888 29.7794 24.0103H19.3688C19.2925 24.2397 19.14 24.6604 18.9111 25.2722C18.6823 25.8585 18.4281 26.5341 18.1485 27.2988C17.8942 28.0636 17.6273 28.8156 17.3476 29.5549C17.0934 30.2942 16.8773 30.9315 16.6994 31.4668C16.5468 31.9767 16.4706 32.2953 16.4706 32.4228C16.4706 32.7797 16.6612 33.0091 17.0426 33.1111C17.4239 33.2131 17.7417 33.264 17.9959 33.264C18.2502 33.264 18.479 33.264 18.6823 33.264C18.8857 33.264 19.051 33.2513 19.1781 33.2258C19.2289 33.2258 19.3179 33.2258 19.445 33.2258C19.5976 33.2003 19.6865 33.1876 19.712 33.1876C19.8645 33.1876 19.9535 33.2768 19.9789 33.4552C20.0298 33.6337 20.0425 33.7739 20.017 33.8759C19.9916 33.9778 19.9281 34.0416 19.8264 34.067C19.7501 34.067 19.6611 34.067 19.5594 34.067C18.8222 34.067 18.0722 34.0543 17.3095 34.0288C16.5468 34.0033 15.7968 33.9906 15.0596 33.9906C14.5003 33.9906 13.9537 34.0033 13.4198 34.0288C12.8859 34.0543 12.3393 34.067 11.78 34.067C11.5512 34.067 11.4368 33.9396 11.4368 33.6847C11.4368 33.3278 11.6148 33.1493 11.9707 33.1493C12.0978 33.1493 12.2504 33.1621 12.4283 33.1876C12.6063 33.1876 12.7969 33.1876 13.0003 33.1876C13.28 33.1876 13.5596 33.1111 13.8393 32.9581C14.1444 32.7797 14.3986 32.4738 14.602 32.0404C14.7291 31.811 14.9833 31.1992 15.3647 30.205C15.746 29.2108 16.2163 27.9744 16.7756 26.4958C17.3349 24.9918 17.9197 23.3858 18.5298 21.6778C19.1654 19.9443 19.7882 18.2236 20.3984 16.5156C21.0085 14.8076 21.5551 13.2271 22.0382 11.774C22.5466 10.3209 22.9534 9.12278 23.2585 8.17957C23.5635 7.21086 23.7161 6.63728 23.7161 6.45883C23.7161 6.40785 23.6779 6.34412 23.6017 6.26764C23.5254 6.16567 23.4873 6.10194 23.4873 6.07645C23.4873 5.97448 23.5254 5.91075 23.6017 5.88525C23.8559 5.83427 24.1228 5.79603 24.4025 5.77054C24.6821 5.74505 24.9491 5.71955 25.2033 5.69406C25.5338 5.64308 25.8643 5.60484 26.1948 5.57935C26.5253 5.52836 26.8558 5.49012 27.1863 5.46463L37.0631 32.2316C37.1648 32.4865 37.3554 32.6905 37.6351 32.8434C37.9402 32.9709 38.2198 33.0346 38.474 33.0346C38.7029 33.0346 38.9317 33.0346 39.1605 33.0346C39.4147 33.0091 39.6689 32.9964 39.9231 32.9964C40.0248 32.9964 40.0884 33.0601 40.1138 33.1876C40.1392 33.315 40.152 33.417 40.152 33.4935Z" fill="#333333"/>
<path d="M57.2138 17.0509C57.2138 17.3058 57.1121 17.548 56.9087 17.7774C56.7307 17.9814 56.5019 18.0833 56.2223 18.0833C55.8409 18.0833 55.5613 17.9559 55.3833 17.701C55.2308 17.446 55.091 17.1529 54.9638 16.8215C54.8622 16.4901 54.6969 16.1969 54.4681 15.942C54.2393 15.6871 53.858 15.5596 53.3241 15.5596C53.2224 15.5596 53.1207 15.5596 53.019 15.5596C52.9427 15.5596 52.8538 15.5723 52.7521 15.5978C52.3199 15.6743 51.8495 15.942 51.3411 16.4009C50.8326 16.8597 50.3369 17.4078 49.8539 18.0451C49.3962 18.6569 49.0149 19.2687 48.7098 19.8806C48.4048 20.4924 48.2395 21.0022 48.2141 21.4101C48.1887 21.818 48.1759 22.2259 48.1759 22.6337C48.1759 23.0161 48.1759 23.3985 48.1759 23.7809C48.1759 25.1575 48.1759 26.5341 48.1759 27.9106C48.2014 29.2872 48.2141 30.6511 48.2141 32.0022C48.2141 32.3846 48.3666 32.665 48.6717 32.8434C49.0022 32.9964 49.3327 33.0728 49.6632 33.0728C49.9174 33.0728 50.1716 33.0601 50.4259 33.0346C50.6801 33.0091 50.9343 32.9964 51.1886 32.9964C51.3157 32.9964 51.4047 33.0601 51.4555 33.1876C51.5063 33.2895 51.5318 33.3915 51.5318 33.4935C51.5318 33.9013 51.3284 34.1053 50.9216 34.1053C50.1589 34.1053 49.3962 34.0925 48.6336 34.067C47.8709 34.0161 47.1082 33.9906 46.3455 33.9906C45.5574 33.9906 44.7566 34.0161 43.943 34.067C43.1549 34.118 42.3541 34.1435 41.5406 34.1435C41.4389 34.1435 41.3626 34.067 41.3118 33.9141C41.2864 33.7611 41.2736 33.6337 41.2736 33.5317C41.2736 33.2768 41.3753 33.1366 41.5787 33.1111C41.8584 33.0601 42.1507 33.0474 42.4558 33.0728C42.7609 33.0983 43.0405 33.1111 43.2948 33.1111C43.6761 33.1111 43.9812 33.0346 44.21 32.8817C44.4642 32.7032 44.604 32.41 44.6295 32.0022C44.6803 31.1864 44.7057 30.3579 44.7057 29.5167C44.7311 28.6754 44.7439 27.8342 44.7439 26.9929V23.2838C44.7184 22.1876 44.7057 21.1042 44.7057 20.0335C44.7311 18.9373 44.693 17.8539 44.5913 16.7832C44.5659 16.2734 44.4261 15.9165 44.1718 15.7126C43.9176 15.4831 43.5363 15.3684 43.0278 15.3684C42.8244 15.3684 42.6083 15.3939 42.3795 15.4449C42.1761 15.4704 41.9601 15.4831 41.7312 15.4831C41.5279 15.4831 41.4262 15.3302 41.4262 15.0243C41.4262 14.8458 41.5152 14.7184 41.6931 14.6419C41.9473 14.5654 42.2143 14.5144 42.4939 14.4889C42.7736 14.4379 43.0405 14.3997 43.2948 14.3742C43.9812 14.2467 44.6676 14.1193 45.354 13.9918C46.0404 13.8644 46.7268 13.7114 47.4133 13.533C47.6421 13.6094 47.8073 13.7496 47.909 13.9536C47.9598 14.0556 47.998 14.336 48.0234 14.7948C48.0488 15.2537 48.0615 15.789 48.0615 16.4009C48.0615 16.9872 48.0615 17.548 48.0615 18.0833C48.0615 18.5932 48.0615 18.9501 48.0615 19.154C48.6208 18.2618 49.2564 17.3696 49.9683 16.4773C50.6801 15.5851 51.4936 14.8458 52.4089 14.2595C53.3241 13.6732 54.3537 13.38 55.4977 13.38C56.1079 13.38 56.5019 13.5712 56.6799 13.9536C56.8579 14.336 56.9723 14.7821 57.0231 15.2919C57.0739 15.5723 57.1121 15.8655 57.1375 16.1714C57.1884 16.4773 57.2138 16.7705 57.2138 17.0509Z" fill="#333333"/>
<path d="M71.4507 32.3081C71.4507 32.5375 71.2727 32.7669 70.9168 32.9964C70.5863 33.2258 70.1795 33.4297 69.6965 33.6082C69.2135 33.7866 68.7431 33.9268 68.2855 34.0288C67.8533 34.1308 67.5356 34.1818 67.3322 34.1818C66.0102 34.1818 64.9806 34.0161 64.2433 33.6847C63.5315 33.3533 63.023 32.8052 62.7179 32.0404C62.4383 31.2756 62.2984 30.2432 62.2984 28.9431C62.2984 26.8272 62.2984 24.7114 62.2984 22.5955C62.3239 20.4541 62.3493 18.3255 62.3747 16.2097H59.629C59.4511 16.2097 59.2985 16.2606 59.1714 16.3626C59.0697 16.4391 58.9553 16.4773 58.8282 16.4773C58.7011 16.4773 58.6376 16.3881 58.6376 16.2097C58.6376 16.1077 58.7011 15.9037 58.8282 15.5978C58.9808 15.2919 59.0825 15.088 59.1333 14.986C59.2096 15.0115 59.324 15.0243 59.4765 15.0243H62.451L62.4891 10.168C63.0738 9.78558 63.6077 9.36496 64.0908 8.9061C64.5738 8.42174 65.0568 7.93739 65.5399 7.45303C65.5907 7.40205 65.6416 7.36381 65.6924 7.33832C65.7432 7.28733 65.7941 7.26184 65.8449 7.26184C66.0737 7.26184 66.1881 7.35107 66.1881 7.52951L65.9593 14.986C66.7729 14.986 67.5737 14.9733 68.3618 14.9478C69.1753 14.9223 69.9762 14.9095 70.7643 14.9095C71.0948 14.9095 71.26 15.1007 71.26 15.4831C71.26 15.9675 71.0439 16.2097 70.6117 16.2097H65.9593C65.9593 18.1471 65.9466 20.0972 65.9212 22.0602C65.9212 23.9976 65.9212 25.9477 65.9212 27.9106V30.855C65.9212 31.4923 66.1881 31.9384 66.722 32.1934C67.2559 32.4228 67.7771 32.5375 68.2855 32.5375C68.9974 32.5375 69.6965 32.4228 70.3829 32.1934C70.4592 32.1424 70.5736 32.0914 70.7261 32.0404C70.8787 31.9894 70.9931 31.9639 71.0693 31.9639C71.3236 31.9639 71.4507 32.0786 71.4507 32.3081Z" fill="#333333"/>
<path d="M83.847 33.4935C83.847 33.6209 83.8089 33.7484 83.7326 33.8759C83.6563 33.9778 83.5546 34.0288 83.4275 34.0288C82.7157 34.0288 82.0039 34.0161 81.292 33.9906C80.6056 33.9396 79.8938 33.9141 79.1565 33.9141H78.1269C77.3642 33.9141 76.6015 33.9396 75.8388 33.9906C75.1015 34.0161 74.3643 34.0288 73.627 34.0288C73.5253 34.0288 73.4491 33.9651 73.3982 33.8376C73.3728 33.7102 73.3601 33.6082 73.3601 33.5317C73.3601 33.4042 73.3728 33.315 73.3982 33.264C73.4236 33.1876 73.4999 33.1366 73.627 33.1111C73.7541 33.0601 73.894 33.0474 74.0465 33.0728C74.2245 33.0728 74.3897 33.0728 74.5422 33.0728C74.7202 33.0728 74.8855 33.0856 75.038 33.1111C75.1905 33.1111 75.3558 33.1111 75.5337 33.1111C75.8896 33.1111 76.2074 33.0346 76.4871 32.8817C76.7922 32.7032 76.9447 32.41 76.9447 32.0022V16.7068C76.9447 16.2734 76.8684 15.942 76.7159 15.7126C76.5634 15.4576 76.2456 15.3302 75.7625 15.3302C75.4066 15.3302 75.038 15.3557 74.6566 15.4066C74.3007 15.4321 73.9448 15.4704 73.5889 15.5214C73.3855 15.5214 73.2838 15.4066 73.2838 15.1772C73.2838 14.9223 73.3855 14.7566 73.5889 14.6801C73.894 14.5781 74.2117 14.5144 74.5422 14.4889C74.8982 14.4379 75.2287 14.387 75.5337 14.336C76.2456 14.2085 76.9574 14.0683 77.6693 13.9153C78.3811 13.7624 79.0802 13.5967 79.7666 13.4182C79.8429 13.3928 79.9446 13.38 80.0717 13.38C80.3514 13.38 80.4912 13.533 80.4912 13.8389C80.4912 16.847 80.4785 19.8678 80.4531 22.9014C80.4531 25.935 80.4531 28.9686 80.4531 32.0022C80.4531 32.41 80.631 32.7032 80.9869 32.8817C81.3683 33.0346 81.7242 33.1111 82.0547 33.1111C82.3089 33.1111 82.5632 33.0983 82.8174 33.0728C83.097 33.0474 83.364 33.0346 83.6182 33.0346C83.7199 33.0346 83.7834 33.0983 83.8089 33.2258C83.8343 33.3533 83.847 33.4425 83.847 33.4935ZM80.7581 7.03241C80.7581 7.66972 80.5293 8.2178 80.0717 8.67667C79.6141 9.11004 79.0675 9.32672 78.4319 9.32672C77.7964 9.32672 77.2498 9.11004 76.7922 8.67667C76.3345 8.2178 76.1057 7.66972 76.1057 7.03241C76.1057 6.3951 76.3345 5.85976 76.7922 5.42639C77.2498 4.96753 77.7964 4.7381 78.4319 4.7381C79.0675 4.7381 79.6141 4.96753 80.0717 5.42639C80.5293 5.85976 80.7581 6.3951 80.7581 7.03241Z" fill="#333333"/>
<path d="M104.888 29.3255C104.888 29.5039 104.748 29.7588 104.468 30.0902C104.188 30.3961 103.985 30.6128 103.858 30.7403C103.629 30.9697 103.4 31.1992 103.172 31.4286C102.943 31.658 102.689 31.8747 102.409 32.0786C101.621 32.6395 100.68 33.1238 99.5869 33.5317C98.4938 33.9141 97.4641 34.1053 96.4981 34.1053C94.5659 34.1053 92.8626 33.6847 91.3881 32.8434C89.939 31.9767 88.7949 30.804 87.956 29.3255C87.1424 27.8214 86.7357 26.1134 86.7357 24.2015C86.7357 22.3151 87.117 20.5434 87.8797 18.8864C88.6424 17.2294 89.85 15.891 91.5025 14.8713C92.2143 14.4379 93.0024 14.0938 93.8668 13.8389C94.7566 13.5839 95.6083 13.4565 96.4218 13.4565C97.0574 13.4565 97.6675 13.533 98.2522 13.6859C98.8624 13.8389 99.4471 14.0428 100.006 14.2977C100.337 14.4507 100.655 14.6036 100.96 14.7566C101.265 14.9095 101.595 14.986 101.951 14.986C102.256 14.986 102.498 14.8968 102.676 14.7184C102.879 14.5144 103.032 14.4124 103.133 14.4124C103.21 14.4124 103.248 14.4634 103.248 14.5654C103.299 14.8713 103.311 15.1772 103.286 15.4831C103.286 15.789 103.299 16.0822 103.324 16.3626C103.35 16.9234 103.375 17.4843 103.4 18.0451C103.426 18.6059 103.451 19.1668 103.477 19.7276V19.8423C103.502 20.1227 103.477 20.3394 103.4 20.4924C103.324 20.6453 103.121 20.7218 102.79 20.7218C102.612 20.7218 102.485 20.6198 102.409 20.4159C102.358 20.212 102.307 20.0335 102.256 19.8806C102.078 19.1413 101.811 18.351 101.456 17.5098C101.1 16.6685 100.617 15.993 100.006 15.4831C99.6251 15.1262 99.142 14.8331 98.5573 14.6036C97.998 14.3742 97.4641 14.2595 96.9557 14.2595C95.7354 14.2595 94.693 14.5781 93.8287 15.2155C92.9897 15.8273 92.316 16.6303 91.8075 17.6245C91.2991 18.5932 90.9177 19.6384 90.6635 20.76C90.4347 21.8817 90.3203 22.9396 90.3203 23.9338C90.3203 24.928 90.4347 25.9477 90.6635 26.9929C90.8923 28.0126 91.2482 28.9686 91.7313 29.8608C92.2397 30.753 92.9007 31.4668 93.7143 32.0022C94.5532 32.5375 95.5574 32.8052 96.7269 32.8052C98.3539 32.8052 99.7141 32.512 100.807 31.9257C101.9 31.3139 102.955 30.3834 103.972 29.1343C104.074 28.9558 104.214 28.8666 104.392 28.8666C104.722 28.8666 104.888 29.0196 104.888 29.3255Z" fill="#333333"/>
<path d="M117.473 33.5699C117.473 33.6974 117.435 33.8249 117.359 33.9523C117.308 34.0543 117.206 34.1053 117.054 34.1053C116.266 34.1053 115.465 34.0925 114.651 34.067C113.838 34.0161 113.024 33.9906 112.211 33.9906H110.876C110.342 33.9906 109.808 34.0161 109.275 34.067C108.741 34.0925 108.207 34.1053 107.673 34.1053C107.571 34.1053 107.495 34.067 107.444 33.9906C107.419 33.8886 107.406 33.7994 107.406 33.7229C107.406 33.6464 107.406 33.5699 107.406 33.4935C107.406 33.417 107.419 33.3405 107.444 33.264C107.495 33.1621 107.635 33.1111 107.864 33.1111C108.118 33.0856 108.372 33.0856 108.626 33.1111C108.906 33.1111 109.084 33.1111 109.16 33.1111C109.516 33.1111 109.834 33.0346 110.114 32.8817C110.393 32.7032 110.533 32.41 110.533 32.0022C110.533 30.0393 110.546 28.0891 110.571 26.1517C110.597 24.1888 110.609 22.2386 110.609 20.3012C110.609 18.3128 110.597 16.3244 110.571 14.336C110.571 12.3221 110.571 10.3209 110.571 8.33252C110.571 8.15407 110.558 7.96288 110.533 7.75894C110.508 7.52951 110.431 7.35107 110.304 7.2236C110.202 7.09614 110.101 7.03241 109.999 7.03241C109.897 7.00692 109.77 6.99417 109.618 6.99417C109.16 6.99417 108.703 7.07065 108.245 7.2236C107.813 7.37656 107.381 7.45303 106.948 7.45303C106.669 7.45303 106.529 7.28733 106.529 6.95593C106.529 6.752 106.681 6.61179 106.986 6.53531C107.317 6.45883 107.571 6.40785 107.749 6.38236C108.639 6.17842 109.605 5.94899 110.647 5.69406C111.69 5.43914 112.63 5.14598 113.469 4.81458C113.52 4.81458 113.571 4.80183 113.622 4.77634C113.673 4.75085 113.711 4.7381 113.736 4.7381C113.889 4.7381 113.978 4.78908 114.003 4.89105C114.054 4.99302 114.079 5.10774 114.079 5.2352C114.079 5.94899 114.067 6.66277 114.041 7.37656C114.041 8.06485 114.041 8.76589 114.041 9.47968V20.1865C114.041 22.1494 114.054 24.125 114.079 26.1134C114.105 28.0763 114.118 30.0393 114.118 32.0022C114.118 32.41 114.283 32.7032 114.613 32.8817C114.969 33.0346 115.312 33.1111 115.643 33.1111C115.923 33.1111 116.19 33.0983 116.444 33.0728C116.698 33.0474 116.952 33.0346 117.206 33.0346C117.334 33.0346 117.41 33.1111 117.435 33.264C117.461 33.3915 117.473 33.4935 117.473 33.5699Z" fill="#333333"/>
<path d="M134.203 20.6453C134.178 19.6001 134.089 18.6059 133.936 17.6627C133.784 16.694 133.415 15.9037 132.83 15.2919C132.245 14.6546 131.292 14.336 129.97 14.336C128.775 14.336 127.796 14.6674 127.034 15.3302C126.297 15.9675 125.725 16.7832 125.318 17.7774C124.911 18.7461 124.606 19.7403 124.403 20.76C125.038 20.7855 125.661 20.811 126.271 20.8365C126.881 20.8365 127.491 20.8365 128.102 20.8365C129.118 20.8365 130.135 20.8238 131.152 20.7983C132.169 20.7473 133.186 20.6963 134.203 20.6453ZM138.589 29.4019C138.589 29.5294 138.563 29.6059 138.512 29.6314C138.436 29.8863 138.245 30.1922 137.94 30.5491C137.661 30.906 137.343 31.2501 136.987 31.5815C136.631 31.8875 136.339 32.1169 136.11 32.2698C135.271 32.8562 134.317 33.3278 133.25 33.6847C132.207 34.0416 131.165 34.22 130.123 34.22C129.258 34.22 128.292 34.0798 127.224 33.7994C126.182 33.519 125.292 33.1366 124.555 32.6522C123.131 31.709 122.089 30.4726 121.428 28.9431C120.767 27.4135 120.437 25.8203 120.437 24.1633C120.437 22.2768 120.805 20.5306 121.542 18.9246C122.28 17.3186 123.462 16.0185 125.089 15.0243C125.826 14.5909 126.652 14.234 127.568 13.9536C128.483 13.6477 129.36 13.4947 130.199 13.4947C131.699 13.4947 133.021 13.8006 134.165 14.4124C135.309 15.0243 136.199 15.891 136.834 17.0127C137.495 18.1088 137.826 19.4217 137.826 20.9512C137.826 21.3846 137.724 21.665 137.521 21.7925C137.343 21.9199 137.063 21.9837 136.682 21.9837C136.173 21.9837 135.665 21.9709 135.156 21.9454C134.648 21.9199 134.139 21.8945 133.631 21.869C132.919 21.818 132.207 21.7925 131.496 21.7925C130.809 21.7925 130.11 21.7925 129.398 21.7925C128.534 21.7925 127.669 21.7925 126.805 21.7925C125.941 21.7925 125.076 21.818 124.212 21.869C124.186 22.2768 124.161 22.672 124.136 23.0544C124.11 23.4367 124.097 23.8319 124.097 24.2397C124.097 25.183 124.212 26.1644 124.441 27.1841C124.669 28.1783 125.038 29.1088 125.547 29.9755C126.055 30.8168 126.703 31.5051 127.491 32.0404C128.28 32.5503 129.233 32.8052 130.351 32.8052C131.496 32.8052 132.589 32.6267 133.631 32.2698C134.673 31.9129 135.627 31.3394 136.491 30.5491C136.72 30.3197 136.923 30.0775 137.101 29.8226C137.305 29.5422 137.521 29.3 137.75 29.096C137.877 28.9686 138.016 28.9048 138.169 28.9048C138.296 28.9048 138.398 28.9558 138.474 29.0578C138.55 29.1598 138.589 29.2745 138.589 29.4019Z" fill="#333333"/>
<path d="M156.013 17.0509C156.013 17.3058 155.911 17.548 155.708 17.7774C155.53 17.9814 155.301 18.0833 155.021 18.0833C154.64 18.0833 154.36 17.9559 154.182 17.701C154.03 17.446 153.89 17.1529 153.763 16.8215C153.661 16.4901 153.496 16.1969 153.267 15.942C153.038 15.6871 152.657 15.5596 152.123 15.5596C152.021 15.5596 151.92 15.5596 151.818 15.5596C151.742 15.5596 151.653 15.5723 151.551 15.5978C151.119 15.6743 150.649 15.942 150.14 16.4009C149.632 16.8597 149.136 17.4078 148.653 18.0451C148.195 18.6569 147.814 19.2687 147.509 19.8806C147.204 20.4924 147.039 21.0022 147.013 21.4101C146.988 21.818 146.975 22.2259 146.975 22.6337C146.975 23.0161 146.975 23.3985 146.975 23.7809C146.975 25.1575 146.975 26.5341 146.975 27.9106C147 29.2872 147.013 30.6511 147.013 32.0022C147.013 32.3846 147.166 32.665 147.471 32.8434C147.801 32.9964 148.132 33.0728 148.462 33.0728C148.717 33.0728 148.971 33.0601 149.225 33.0346C149.479 33.0091 149.733 32.9964 149.988 32.9964C150.115 32.9964 150.204 33.0601 150.255 33.1876C150.305 33.2895 150.331 33.3915 150.331 33.4935C150.331 33.9013 150.128 34.1053 149.721 34.1053C148.958 34.1053 148.195 34.0925 147.433 34.067C146.67 34.0161 145.907 33.9906 145.145 33.9906C144.357 33.9906 143.556 34.0161 142.742 34.067C141.954 34.118 141.153 34.1435 140.34 34.1435C140.238 34.1435 140.162 34.067 140.111 33.9141C140.085 33.7611 140.073 33.6337 140.073 33.5317C140.073 33.2768 140.174 33.1366 140.378 33.1111C140.657 33.0601 140.95 33.0474 141.255 33.0728C141.56 33.0983 141.84 33.1111 142.094 33.1111C142.475 33.1111 142.78 33.0346 143.009 32.8817C143.263 32.7032 143.403 32.41 143.429 32.0022C143.479 31.1864 143.505 30.3579 143.505 29.5167C143.53 28.6754 143.543 27.8342 143.543 26.9929V23.2838C143.518 22.1876 143.505 21.1042 143.505 20.0335C143.53 18.9373 143.492 17.8539 143.39 16.7832C143.365 16.2734 143.225 15.9165 142.971 15.7126C142.717 15.4831 142.335 15.3684 141.827 15.3684C141.624 15.3684 141.407 15.3939 141.179 15.4449C140.975 15.4704 140.759 15.4831 140.53 15.4831C140.327 15.4831 140.225 15.3302 140.225 15.0243C140.225 14.8458 140.314 14.7184 140.492 14.6419C140.746 14.5654 141.013 14.5144 141.293 14.4889C141.573 14.4379 141.84 14.3997 142.094 14.3742C142.78 14.2467 143.467 14.1193 144.153 13.9918C144.84 13.8644 145.526 13.7114 146.212 13.533C146.441 13.6094 146.606 13.7496 146.708 13.9536C146.759 14.0556 146.797 14.336 146.823 14.7948C146.848 15.2537 146.861 15.789 146.861 16.4009C146.861 16.9872 146.861 17.548 146.861 18.0833C146.861 18.5932 146.861 18.9501 146.861 19.154C147.42 18.2618 148.056 17.3696 148.767 16.4773C149.479 15.5851 150.293 14.8458 151.208 14.2595C152.123 13.6732 153.153 13.38 154.297 13.38C154.907 13.38 155.301 13.5712 155.479 13.9536C155.657 14.336 155.771 14.7821 155.822 15.2919C155.873 15.5723 155.911 15.8655 155.937 16.1714C155.987 16.4773 156.013 16.7705 156.013 17.0509Z" fill="#333333"/>
<path d="M3.46675 0H17.3338V34.067H3.46675V0Z" fill="#FBF3EB"/>
<path d="M0 0H3.46675V34.067H0V0Z" fill="#333333"/>
</svg>
