<svg width="35" height="41" viewBox="0 0 35 41" fill="none" xmlns="http://www.w3.org/2000/svg">
<g id="material-symbols:shopping-cart-sharp">
<path id="Vector" d="M10.4701 37.943C9.64744 37.943 8.94295 37.6434 8.35662 37.0442C7.7703 36.445 7.47764 35.7256 7.47863 34.886C7.47863 34.0453 7.7718 33.3254 8.35812 32.7262C8.94445 32.127 9.64843 31.8279 10.4701 31.8289C11.2927 31.8289 11.9972 32.1285 12.5835 32.7277C13.1699 33.3269 13.4625 34.0463 13.4615 34.886C13.4615 35.7266 13.1684 36.4466 12.5821 37.0457C11.9957 37.6449 11.2917 37.944 10.4701 37.943ZM25.4274 37.943C24.6047 37.943 23.9002 37.6434 23.3139 37.0442C22.7276 36.445 22.4349 35.7256 22.4359 34.886C22.4359 34.0453 22.7291 33.3254 23.3154 32.7262C23.9017 32.127 24.6057 31.8279 25.4274 31.8289C26.25 31.8289 26.9545 32.1285 27.5408 32.7277C28.1271 33.3269 28.4198 34.0463 28.4188 34.886C28.4188 35.7266 28.1256 36.4466 27.5393 37.0457C26.953 37.6449 26.249 37.944 25.4274 37.943ZM7.77778 10.4298H32.4573L25.016 24.1864H12.1154L10.4701 27.2434H28.4188V30.3004H5.42201L9.8718 22.0465L4.48718 10.4298H1.49573V7.3728H6.35684L7.77778 10.4298Z" fill="black"/>
</g>
</svg>
